<?xml version="1.0" encoding="utf-8"?>
<!-- Generator: Adobe Illustrator 27.0.0, SVG Export Plug-In . SVG Version: 6.00 Build 0)  -->
<svg version="1.1" id="Layer_1" xmlns="http://www.w3.org/2000/svg" xmlns:xlink="http://www.w3.org/1999/xlink" x="0px" y="0px"
	 viewBox="0 0 547.8 543.5" style="enable-background:new 0 0 547.8 543.5;" xml:space="preserve">
<g>
	<path d="M274.8,20.1c-138.1,0-250,111.9-250,250s111.9,250,250,250s250-111.9,250-250S412.8,20.1,274.8,20.1z M229.2,111h193.2
		l-11.6,10c0,0.5,0.2,0.9,0.2,1.4v60c6.8,3.9,11.4,11.1,11.4,19.6v68.1c0,12.5-10.2,22.7-22.7,22.7s-22.7-10.2-22.7-22.7v-68.2
		c0-8.4,4.5-15.7,11.4-19.6v-42.1l-40.8,35c4,8,6.7,17.6,6.7,29.4c0,30.9-17.3,46.2-34.4,59.9c-5.3,5.5-11.6,11.4-11.6,20.6
		c0,9.1,6.3,14.2,10.8,17.8l14.6,11.7c18.1,15.5,34.4,29.7,34.4,58.4c0,39.2-37.4,78.9-107.8,78.9c-59.4,0-88.1-28.8-88.1-59.7
		c0-15,7.4-36.3,31.6-50.9c25.3-15.8,59.8-17.9,78.3-19.2c-5.8-7.5-12.4-15.3-12.4-28.4c0-6.9,2.1-11.1,4.2-16.2
		c-4.5,0.5-9.1,0.9-13.2,0.9c-43.2,0-67.8-32.7-68.1-65.1h-77L229.2,111z M266.5,147.8c-10.6,0-22,5.3-28.6,13.9
		c-6.9,8.6-9.1,19.9-9.1,30.7c0,28,16.2,74.3,51.3,74.3c10.3,0,21.4-5,27.9-11.7c9.3-9.7,10.2-23,10.2-30.3
		C318.2,194.5,300.5,147.8,266.5,147.8z M286.5,333.8c-3.6,0-25.8,0.8-42.9,6.7c-9.1,3.4-35.2,13.3-35.2,43s28.2,50.9,72,50.9
		c39.4,0,60.2-19.3,60.2-45.1c0-21.2-13.4-32.5-44.5-55C292.8,333.9,290.8,333.8,286.5,333.8z"/>
</g>
</svg>
